# xmcd
#
# Track frame offsets:
#	150
#	18922
#	36237
#	50656
#	73501
#	92335
#	111457
#	135674
#	148946
#	172918
#	190195
#	204624
#
# Disc length: 3038 seconds
#
# Revision: 0
# Processed by: cddbd v1.5.1PL0 Copyright (c) Steve Scherf et al.
# Submitted via: dBpowerAMP V4.0
#
DISCID=ab0bdc0c
DTITLE=Lynyrd  Skynyrd - Poison Whiskey
DYEAR=1900
DGENRE=
TTITLE0=Free Bird
TTITLE1=Junkie
TTITLE2=He´s Alive
TTITLE3=One More Time
TTITLE4=Gimmie Three Steps
TTITLE5=Trust
TTITLE6=Mr. Banker
TTITLE7=Down South Jukin´
TTITLE8=Truck Drivin´ Man
TTITLE9=I Ain´t The One
TTITLE10=Poison Whiskey
TTITLE11=Was I Rigrt Or Wrong
EXTD=
EXTT0=
EXTT1=
EXTT2=
EXTT3=
EXTT4=
EXTT5=
EXTT6=
EXTT7=
EXTT8=
EXTT9=
EXTT10=
EXTT11=
PLAYORDER=
